<svg width="25" height="24" viewBox="0 0 25 24" fill="none" xmlns="http://www.w3.org/2000/svg">
    <path d="M17.5 18a1 1 0 1 0 2 0 1 1 0 0 0-2 0zM11.5 18a1 1 0 1 0 2 0 1 1 0 0 0-2 0zM5.5 18a1 1 0 1 0 2 0 1 1 0 0 0-2 0zM17.5 12a1 1 0 1 0 2 0 1 1 0 0 0-2 0zM11.5 12a1 1 0 1 0 2 0 1 1 0 0 0-2 0zM5.5 12a1 1 0 1 0 2 0 1 1 0 0 0-2 0zM17.5 6a1 1 0 1 0 2 0 1 1 0 0 0-2 0zM11.5 6a1 1 0 1 0 2 0 1 1 0 0 0-2 0zM5.5 6a1 1 0 1 0 2 0 1 1 0 0 0-2 0z" fill="#666"/>
    <path d="M17.5 18a1 1 0 1 0 2 0 1 1 0 0 0-2 0zM11.5 18a1 1 0 1 0 2 0 1 1 0 0 0-2 0zM5.5 18a1 1 0 1 0 2 0 1 1 0 0 0-2 0zM17.5 12a1 1 0 1 0 2 0 1 1 0 0 0-2 0zM11.5 12a1 1 0 1 0 2 0 1 1 0 0 0-2 0zM5.5 12a1 1 0 1 0 2 0 1 1 0 0 0-2 0zM17.5 6a1 1 0 1 0 2 0 1 1 0 0 0-2 0zM11.5 6a1 1 0 1 0 2 0 1 1 0 0 0-2 0zM5.5 6a1 1 0 1 0 2 0 1 1 0 0 0-2 0z" stroke="#666" stroke-width="1.2" stroke-linecap="round" stroke-linejoin="round"/>
</svg>
