<svg width="25" height="24" viewBox="0 0 25 24" fill="none" xmlns="http://www.w3.org/2000/svg">
    <path d="M10.848 3.836c.363-1.115 1.94-1.115 2.302 0l1.296 3.986a1.21 1.21 0 0 0 1.15.835h4.191c1.173 0 1.66 1.501.712 2.191l-3.39 2.463a1.21 1.21 0 0 0-.44 1.353l1.295 3.985c.363 1.115-.914 2.044-1.864 1.354l-3.39-2.462a1.211 1.211 0 0 0-1.423 0l-3.39 2.462c-.948.69-2.224-.239-1.862-1.354l1.295-3.985a1.21 1.21 0 0 0-.44-1.353L3.5 10.849c-.947-.69-.46-2.19.713-2.19h4.19a1.21 1.21 0 0 0 1.15-.836l1.296-3.986h-.001z" stroke="#666" stroke-width="1.2"/>
</svg>
